<svg width="24" height="25" viewBox="0 0 24 25" fill="none" xmlns="http://www.w3.org/2000/svg">
<g clip-path="url(#clip0_1292_37612)">
<path d="M17.4509 13.357C17.4525 12.4509 17.7424 11.5687 18.2787 10.8383C18.8149 10.1079 19.5697 9.56707 20.4338 9.29413C20.099 8.6775 19.638 8.13841 19.0807 7.71207C18.5235 7.28574 17.8825 6.98176 17.1998 6.81997C16.5171 6.65819 15.8079 6.64224 15.1186 6.77318C14.4293 6.90412 13.7753 7.17899 13.1995 7.57985C12.9389 7.73031 12.6433 7.80952 12.3424 7.80952C12.0414 7.80952 11.7458 7.73031 11.4852 7.57985C10.8619 7.18451 10.1629 6.9238 9.4329 6.81443C8.70294 6.70506 7.95818 6.74945 7.24639 6.94475C6.53459 7.14005 5.87146 7.48195 5.29953 7.94853C4.72759 8.4151 4.25948 8.99606 3.92521 9.65413C2.97024 11.4129 2.64369 13.4447 2.9995 15.4141C3.28839 18.119 4.45671 20.6543 6.32521 22.6313C6.94116 23.2156 7.7446 23.5622 8.5923 23.6093C9.44001 23.6564 10.2769 23.4009 10.9538 22.8884C11.3433 22.6003 11.815 22.4448 12.2995 22.4448C12.784 22.4448 13.2557 22.6003 13.6452 22.8884C14.2948 23.4132 15.1092 23.6908 15.944 23.6719C16.7789 23.6531 17.58 23.3391 18.2052 22.7856C19.6165 21.3608 20.6225 19.5856 21.1195 17.6427C20.0898 17.5004 19.1479 16.9857 18.472 16.196C17.796 15.4063 17.4327 14.3963 17.4509 13.357Z" stroke="#A0A1B1" stroke-width="1.71429" stroke-linecap="round" stroke-linejoin="round"/>
<path d="M14.0234 3.92885L16.5949 1.35742" stroke="#A0A1B1" stroke-width="1.71429" stroke-linecap="round" stroke-linejoin="round"/>
</g>
<defs>
<clipPath id="clip0_1292_37612">
<rect width="24" height="24" fill="white" transform="translate(0 0.5)"/>
</clipPath>
</defs>
</svg>
