<svg width="24" height="25" viewBox="0 0 24 25" fill="none" xmlns="http://www.w3.org/2000/svg">
<g clip-path="url(#clip0_1292_37559)">
<path d="M16.5114 11.9996C16.5113 12.9708 16.2242 13.9204 15.6862 14.729C15.1482 15.5376 14.3832 16.1693 13.4874 16.5446C12.5916 16.9199 11.6049 17.0222 10.6512 16.8386C9.69743 16.655 8.81919 16.1937 8.12676 15.5126C7.43433 14.8315 6.95857 13.961 6.75923 13.0105C6.55988 12.0599 6.64584 11.0716 7.00631 10.1697C7.36677 9.26783 7.98568 8.49255 8.7853 7.94125C9.58492 7.38994 10.5296 7.08718 11.5007 7.071C12.1548 7.06009 12.8046 7.17952 13.412 7.42232C14.0195 7.66512 14.5726 8.02643 15.039 8.48518C15.5054 8.94393 15.8758 9.49094 16.1286 10.0943C16.3814 10.6977 16.5115 11.3454 16.5114 11.9996V11.9996Z" stroke="#A0A1B1" stroke-width="2" stroke-linecap="round" stroke-linejoin="round"/>
<path d="M16.5 12.5V14C16.5 16.6689 19.5334 16.0034 19.5334 16.0034C19.5334 16.0034 22.6583 11.9944 19.7853 7.26463C18.938 5.82215 17.7286 4.62433 16.2761 3.78894C14.8236 2.95354 13.178 2.50934 11.5011 2.5C10.0923 2.50434 8.70196 2.81995 7.43019 3.42413C6.15843 4.0283 5.03686 4.90601 4.14621 5.99408C3.25556 7.08214 2.61798 8.3535 2.27938 9.71664C1.94077 11.0798 1.90955 12.5008 2.18796 13.8774C2.46638 15.254 3.0475 16.552 3.88951 17.6779C4.73152 18.8038 5.81347 19.7296 7.05748 20.3887C8.30148 21.0478 9.67661 21.4237 11.0839 21.4896C12.4911 21.5554 13.8955 21.3094 15.196 20.7693" stroke="#A0A1B1" stroke-width="2" stroke-linecap="square" stroke-linejoin="round"/>
</g>
<defs>
<clipPath id="clip0_1292_37559">
<rect width="24" height="24" fill="white" transform="translate(0 0.5)"/>
</clipPath>
</defs>
</svg>
