<svg width="288" height="210" viewBox="0 0 288 210" fill="none" xmlns="http://www.w3.org/2000/svg">
<circle cx="0.867867" cy="13.9128" r="2.3913" fill="white" fill-opacity="0.1"/>
<circle cx="17.6101" cy="13.9128" r="2.3913" fill="white" fill-opacity="0.1"/>
<circle cx="34.3483" cy="13.9128" r="2.3913" fill="white" fill-opacity="0.1"/>
<circle cx="51.0866" cy="13.9128" r="2.3913" fill="white" fill-opacity="0.1"/>
<circle cx="67.8249" cy="13.9128" r="2.3913" fill="white" fill-opacity="0.1"/>
<circle cx="84.5671" cy="13.9128" r="2.3913" fill="white" fill-opacity="0.1"/>
<circle cx="101.305" cy="13.9128" r="2.3913" fill="white" fill-opacity="0.1"/>
<circle cx="118.044" cy="13.9128" r="2.3913" fill="white" fill-opacity="0.1"/>
<circle cx="134.782" cy="13.9128" r="2.3913" fill="white" fill-opacity="0.1"/>
<circle cx="151.52" cy="13.9128" r="2.3913" fill="white" fill-opacity="0.1"/>
<circle cx="168.262" cy="13.9128" r="2.3913" fill="white" fill-opacity="0.1"/>
<circle cx="185.001" cy="13.9128" r="2.3913" fill="white" fill-opacity="0.1"/>
<circle cx="201.739" cy="13.9128" r="2.3913" fill="white" fill-opacity="0.1"/>
<circle cx="218.477" cy="13.9128" r="2.3913" fill="white" fill-opacity="0.1"/>
<circle cx="235.216" cy="13.9128" r="2.3913" fill="white" fill-opacity="0.1"/>
<circle cx="251.958" cy="13.9128" r="2.3913" fill="white" fill-opacity="0.1"/>
<circle cx="268.696" cy="13.9128" r="2.3913" fill="white" fill-opacity="0.1"/>
<circle cx="285.434" cy="13.9128" r="2.3913" fill="white" fill-opacity="0.1"/>
<circle cx="0.867867" cy="35.4352" r="2.3913" fill="white" fill-opacity="0.1"/>
<circle cx="17.6101" cy="35.4352" r="2.3913" fill="white" fill-opacity="0.1"/>
<circle cx="34.3483" cy="35.4352" r="2.3913" fill="white" fill-opacity="0.1"/>
<circle cx="51.0866" cy="35.4352" r="2.3913" fill="white" fill-opacity="0.1"/>
<circle cx="67.8249" cy="35.4352" r="2.3913" fill="white" fill-opacity="0.1"/>
<circle cx="84.5671" cy="35.4352" r="2.3913" fill="white" fill-opacity="0.1"/>
<circle cx="101.305" cy="35.4352" r="2.3913" fill="white" fill-opacity="0.1"/>
<circle cx="118.044" cy="35.4352" r="2.3913" fill="white" fill-opacity="0.1"/>
<circle cx="134.782" cy="35.4352" r="2.3913" fill="white" fill-opacity="0.1"/>
<circle cx="151.52" cy="35.4352" r="2.3913" fill="white" fill-opacity="0.1"/>
<circle cx="168.262" cy="35.4352" r="2.3913" fill="white" fill-opacity="0.1"/>
<circle cx="185.001" cy="35.4352" r="2.3913" fill="white" fill-opacity="0.1"/>
<circle cx="201.739" cy="35.4352" r="2.3913" fill="white" fill-opacity="0.1"/>
<circle cx="218.477" cy="35.4352" r="2.3913" fill="white" fill-opacity="0.1"/>
<circle cx="235.216" cy="35.4352" r="2.3913" fill="white" fill-opacity="0.1"/>
<circle cx="251.958" cy="35.4352" r="2.3913" fill="white" fill-opacity="0.1"/>
<circle cx="268.696" cy="35.4352" r="2.3913" fill="white" fill-opacity="0.1"/>
<circle cx="285.434" cy="35.4352" r="2.3913" fill="white" fill-opacity="0.1"/>
<circle cx="0.867867" cy="56.9567" r="2.3913" fill="white" fill-opacity="0.1"/>
<circle cx="17.6101" cy="56.9567" r="2.3913" fill="white" fill-opacity="0.1"/>
<circle cx="34.3483" cy="56.9567" r="2.3913" fill="white" fill-opacity="0.1"/>
<circle cx="51.0866" cy="56.9567" r="2.3913" fill="white" fill-opacity="0.1"/>
<circle cx="67.8249" cy="56.9567" r="2.3913" fill="white" fill-opacity="0.1"/>
<circle cx="84.5671" cy="56.9567" r="2.3913" fill="white" fill-opacity="0.1"/>
<circle cx="101.305" cy="56.9567" r="2.3913" fill="white" fill-opacity="0.1"/>
<circle cx="118.044" cy="56.9567" r="2.3913" fill="white" fill-opacity="0.1"/>
<circle cx="134.782" cy="56.9567" r="2.3913" fill="white" fill-opacity="0.1"/>
<circle cx="151.52" cy="56.9567" r="2.3913" fill="white" fill-opacity="0.1"/>
<circle cx="168.262" cy="56.9567" r="2.3913" fill="white" fill-opacity="0.1"/>
<circle cx="185.001" cy="56.9567" r="2.3913" fill="white" fill-opacity="0.1"/>
<circle cx="201.739" cy="56.9567" r="2.3913" fill="white" fill-opacity="0.1"/>
<circle cx="218.477" cy="56.9567" r="2.3913" fill="white" fill-opacity="0.1"/>
<circle cx="235.216" cy="56.9567" r="2.3913" fill="white" fill-opacity="0.1"/>
<circle cx="251.958" cy="56.9567" r="2.3913" fill="white" fill-opacity="0.1"/>
<circle cx="268.696" cy="56.9567" r="2.3913" fill="white" fill-opacity="0.1"/>
<circle cx="285.434" cy="56.9567" r="2.3913" fill="white" fill-opacity="0.1"/>
<circle cx="0.867867" cy="78.4782" r="2.3913" fill="white" fill-opacity="0.1"/>
<circle cx="17.6101" cy="78.4782" r="2.3913" fill="white" fill-opacity="0.1"/>
<circle cx="34.3483" cy="78.4782" r="2.3913" fill="white" fill-opacity="0.1"/>
<circle cx="51.0866" cy="78.4782" r="2.3913" fill="white" fill-opacity="0.1"/>
<circle cx="67.8249" cy="78.4782" r="2.3913" fill="white" fill-opacity="0.1"/>
<circle cx="84.5671" cy="78.4782" r="2.3913" fill="white" fill-opacity="0.1"/>
<circle cx="101.305" cy="78.4782" r="2.3913" fill="white" fill-opacity="0.1"/>
<circle cx="118.044" cy="78.4782" r="2.3913" fill="white" fill-opacity="0.1"/>
<circle cx="134.782" cy="78.4782" r="2.3913" fill="white" fill-opacity="0.1"/>
<circle cx="151.52" cy="78.4782" r="2.3913" fill="white" fill-opacity="0.1"/>
<circle cx="168.262" cy="78.4782" r="2.3913" fill="white" fill-opacity="0.1"/>
<circle cx="185.001" cy="78.4782" r="2.3913" fill="white" fill-opacity="0.1"/>
<circle cx="201.739" cy="78.4782" r="2.3913" fill="white" fill-opacity="0.1"/>
<circle cx="218.477" cy="78.4782" r="2.3913" fill="white" fill-opacity="0.1"/>
<circle cx="235.216" cy="78.4782" r="2.3913" fill="white" fill-opacity="0.1"/>
<circle cx="251.958" cy="78.4782" r="2.3913" fill="white" fill-opacity="0.1"/>
<circle cx="268.696" cy="78.4782" r="2.3913" fill="white" fill-opacity="0.1"/>
<circle cx="285.434" cy="78.4782" r="2.3913" fill="white" fill-opacity="0.1"/>
<circle cx="0.867867" cy="99.9997" r="2.3913" fill="white" fill-opacity="0.1"/>
<circle cx="17.6101" cy="99.9997" r="2.3913" fill="white" fill-opacity="0.1"/>
<circle cx="34.3483" cy="99.9997" r="2.3913" fill="white" fill-opacity="0.1"/>
<circle cx="51.0866" cy="99.9997" r="2.3913" fill="white" fill-opacity="0.1"/>
<circle cx="67.8249" cy="99.9997" r="2.3913" fill="white" fill-opacity="0.1"/>
<circle cx="84.5671" cy="99.9997" r="2.3913" fill="white" fill-opacity="0.1"/>
<circle cx="101.305" cy="99.9997" r="2.3913" fill="white" fill-opacity="0.1"/>
<circle cx="118.044" cy="99.9997" r="2.3913" fill="white" fill-opacity="0.1"/>
<circle cx="134.782" cy="99.9997" r="2.3913" fill="white" fill-opacity="0.1"/>
<circle cx="151.52" cy="99.9997" r="2.3913" fill="white" fill-opacity="0.1"/>
<circle cx="168.262" cy="99.9997" r="2.3913" fill="white" fill-opacity="0.1"/>
<circle cx="185.001" cy="99.9997" r="2.3913" fill="white" fill-opacity="0.1"/>
<circle cx="201.739" cy="99.9997" r="2.3913" fill="white" fill-opacity="0.1"/>
<circle cx="218.477" cy="99.9997" r="2.3913" fill="white" fill-opacity="0.1"/>
<circle cx="235.216" cy="99.9997" r="2.3913" fill="white" fill-opacity="0.1"/>
<circle cx="251.958" cy="99.9997" r="2.3913" fill="white" fill-opacity="0.1"/>
<circle cx="268.696" cy="99.9997" r="2.3913" fill="white" fill-opacity="0.1"/>
<circle cx="285.434" cy="99.9997" r="2.3913" fill="white" fill-opacity="0.1"/>
<circle cx="0.867867" cy="121.522" r="2.3913" fill="white" fill-opacity="0.1"/>
<circle cx="17.6101" cy="121.522" r="2.3913" fill="white" fill-opacity="0.1"/>
<circle cx="34.3483" cy="121.522" r="2.3913" fill="white" fill-opacity="0.1"/>
<circle cx="51.0866" cy="121.522" r="2.3913" fill="white" fill-opacity="0.1"/>
<circle cx="67.8249" cy="121.522" r="2.3913" fill="white" fill-opacity="0.1"/>
<circle cx="84.5671" cy="121.522" r="2.3913" fill="white" fill-opacity="0.1"/>
<circle cx="101.305" cy="121.522" r="2.3913" fill="white" fill-opacity="0.1"/>
<circle cx="118.044" cy="121.522" r="2.3913" fill="white" fill-opacity="0.1"/>
<circle cx="134.782" cy="121.522" r="2.3913" fill="white" fill-opacity="0.1"/>
<circle cx="151.52" cy="121.522" r="2.3913" fill="white" fill-opacity="0.1"/>
<circle cx="168.262" cy="121.522" r="2.3913" fill="white" fill-opacity="0.1"/>
<circle cx="185.001" cy="121.522" r="2.3913" fill="white" fill-opacity="0.1"/>
<circle cx="201.739" cy="121.522" r="2.3913" fill="white" fill-opacity="0.1"/>
<circle cx="218.477" cy="121.522" r="2.3913" fill="white" fill-opacity="0.1"/>
<circle cx="235.216" cy="121.522" r="2.3913" fill="white" fill-opacity="0.1"/>
<circle cx="251.958" cy="121.522" r="2.3913" fill="white" fill-opacity="0.1"/>
<circle cx="268.696" cy="121.522" r="2.3913" fill="white" fill-opacity="0.1"/>
<circle cx="285.434" cy="121.522" r="2.3913" fill="white" fill-opacity="0.1"/>
<circle cx="0.867867" cy="143.044" r="2.3913" fill="white" fill-opacity="0.1"/>
<circle cx="17.6101" cy="143.044" r="2.3913" fill="white" fill-opacity="0.1"/>
<circle cx="34.3483" cy="143.044" r="2.3913" fill="white" fill-opacity="0.1"/>
<circle cx="51.0866" cy="143.044" r="2.3913" fill="white" fill-opacity="0.1"/>
<circle cx="67.8249" cy="143.044" r="2.3913" fill="white" fill-opacity="0.1"/>
<circle cx="84.5671" cy="143.044" r="2.3913" fill="white" fill-opacity="0.1"/>
<circle cx="101.305" cy="143.044" r="2.3913" fill="white" fill-opacity="0.1"/>
<circle cx="118.044" cy="143.044" r="2.3913" fill="white" fill-opacity="0.1"/>
<circle cx="134.782" cy="143.044" r="2.3913" fill="white" fill-opacity="0.1"/>
<circle cx="151.52" cy="143.044" r="2.3913" fill="white" fill-opacity="0.1"/>
<circle cx="168.262" cy="143.044" r="2.3913" fill="white" fill-opacity="0.1"/>
<circle cx="185.001" cy="143.044" r="2.3913" fill="white" fill-opacity="0.1"/>
<circle cx="201.739" cy="143.044" r="2.3913" fill="white" fill-opacity="0.1"/>
<circle cx="218.477" cy="143.044" r="2.3913" fill="white" fill-opacity="0.1"/>
<circle cx="235.216" cy="143.044" r="2.3913" fill="white" fill-opacity="0.1"/>
<circle cx="251.958" cy="143.044" r="2.3913" fill="white" fill-opacity="0.1"/>
<circle cx="268.696" cy="143.044" r="2.3913" fill="white" fill-opacity="0.1"/>
<circle cx="285.434" cy="143.044" r="2.3913" fill="white" fill-opacity="0.1"/>
<circle cx="0.867867" cy="164.565" r="2.3913" fill="white" fill-opacity="0.1"/>
<circle cx="17.6101" cy="164.565" r="2.3913" fill="white" fill-opacity="0.1"/>
<circle cx="34.3483" cy="164.565" r="2.3913" fill="white" fill-opacity="0.1"/>
<circle cx="51.0866" cy="164.565" r="2.3913" fill="white" fill-opacity="0.1"/>
<circle cx="67.8249" cy="164.565" r="2.3913" fill="white" fill-opacity="0.1"/>
<circle cx="84.5671" cy="164.565" r="2.3913" fill="white" fill-opacity="0.1"/>
<circle cx="101.305" cy="164.565" r="2.3913" fill="white" fill-opacity="0.1"/>
<circle cx="118.044" cy="164.565" r="2.3913" fill="white" fill-opacity="0.1"/>
<circle cx="134.782" cy="164.565" r="2.3913" fill="white" fill-opacity="0.1"/>
<circle cx="151.52" cy="164.565" r="2.3913" fill="white" fill-opacity="0.1"/>
<circle cx="168.262" cy="164.565" r="2.3913" fill="white" fill-opacity="0.1"/>
<circle cx="185.001" cy="164.565" r="2.3913" fill="white" fill-opacity="0.1"/>
<circle cx="201.739" cy="164.565" r="2.3913" fill="white" fill-opacity="0.1"/>
<circle cx="218.477" cy="164.565" r="2.3913" fill="white" fill-opacity="0.1"/>
<circle cx="235.216" cy="164.565" r="2.3913" fill="white" fill-opacity="0.1"/>
<circle cx="251.958" cy="164.565" r="2.3913" fill="white" fill-opacity="0.1"/>
<circle cx="268.696" cy="164.565" r="2.3913" fill="white" fill-opacity="0.1"/>
<circle cx="285.434" cy="164.565" r="2.3913" fill="white" fill-opacity="0.1"/>
<circle cx="0.867867" cy="186.087" r="2.3913" fill="white" fill-opacity="0.1"/>
<circle cx="17.6101" cy="186.087" r="2.3913" fill="white" fill-opacity="0.1"/>
<circle cx="34.3483" cy="186.087" r="2.3913" fill="white" fill-opacity="0.1"/>
<circle cx="51.0866" cy="186.087" r="2.3913" fill="white" fill-opacity="0.1"/>
<circle cx="67.8249" cy="186.087" r="2.3913" fill="white" fill-opacity="0.1"/>
<circle cx="84.5671" cy="186.087" r="2.3913" fill="white" fill-opacity="0.1"/>
<circle cx="101.305" cy="186.087" r="2.3913" fill="white" fill-opacity="0.1"/>
<circle cx="118.044" cy="186.087" r="2.3913" fill="white" fill-opacity="0.1"/>
<circle cx="134.782" cy="186.087" r="2.3913" fill="white" fill-opacity="0.1"/>
<circle cx="151.52" cy="186.087" r="2.3913" fill="white" fill-opacity="0.1"/>
<circle cx="168.262" cy="186.087" r="2.3913" fill="white" fill-opacity="0.1"/>
<circle cx="185.001" cy="186.087" r="2.3913" fill="white" fill-opacity="0.1"/>
<circle cx="201.739" cy="186.087" r="2.3913" fill="white" fill-opacity="0.1"/>
<circle cx="218.477" cy="186.087" r="2.3913" fill="white" fill-opacity="0.1"/>
<circle cx="235.216" cy="186.087" r="2.3913" fill="white" fill-opacity="0.1"/>
<circle cx="251.958" cy="186.087" r="2.3913" fill="white" fill-opacity="0.1"/>
<circle cx="268.696" cy="186.087" r="2.3913" fill="white" fill-opacity="0.1"/>
<circle cx="285.434" cy="186.087" r="2.3913" fill="white" fill-opacity="0.1"/>
<circle cx="0.867867" cy="207.609" r="2.3913" fill="white" fill-opacity="0.1"/>
<circle cx="17.6101" cy="207.609" r="2.3913" fill="white" fill-opacity="0.1"/>
<circle cx="34.3483" cy="207.609" r="2.3913" fill="white" fill-opacity="0.1"/>
<circle cx="51.0866" cy="207.609" r="2.3913" fill="white" fill-opacity="0.1"/>
<circle cx="67.8249" cy="207.609" r="2.3913" fill="white" fill-opacity="0.1"/>
<circle cx="84.5671" cy="207.609" r="2.3913" fill="white" fill-opacity="0.1"/>
<circle cx="101.305" cy="207.609" r="2.3913" fill="white" fill-opacity="0.1"/>
<circle cx="118.044" cy="207.609" r="2.3913" fill="white" fill-opacity="0.1"/>
<circle cx="134.782" cy="207.609" r="2.3913" fill="white" fill-opacity="0.1"/>
<circle cx="151.52" cy="207.609" r="2.3913" fill="white" fill-opacity="0.1"/>
<circle cx="168.262" cy="207.609" r="2.3913" fill="white" fill-opacity="0.1"/>
<circle cx="185.001" cy="207.609" r="2.3913" fill="white" fill-opacity="0.1"/>
<circle cx="201.739" cy="207.609" r="2.3913" fill="white" fill-opacity="0.1"/>
<circle cx="218.477" cy="207.609" r="2.3913" fill="white" fill-opacity="0.1"/>
<circle cx="235.216" cy="207.609" r="2.3913" fill="white" fill-opacity="0.1"/>
<circle cx="251.958" cy="207.609" r="2.3913" fill="white" fill-opacity="0.1"/>
<circle cx="268.696" cy="207.609" r="2.3913" fill="white" fill-opacity="0.1"/>
<circle cx="285.434" cy="207.609" r="2.3913" fill="white" fill-opacity="0.1"/>
</svg>
