<svg width="24" height="25" viewBox="0 0 24 25" fill="none" xmlns="http://www.w3.org/2000/svg">
<path d="M19.4744 10.4947H15.2058C15.0896 10.4946 14.9745 10.5178 14.8673 10.5628C14.7601 10.6078 14.6629 10.6738 14.5815 10.7568C14.5001 10.8398 14.436 10.9382 14.3931 11.0463C14.3502 11.1543 14.3293 11.2698 14.3316 11.3861V13.8032C14.3316 14.0351 14.4237 14.2575 14.5876 14.4215C14.7516 14.5854 14.974 14.6775 15.2058 14.6775H17.4173C17.4297 15.3401 17.3022 15.9979 17.0432 16.6079C16.7843 17.2179 16.3996 17.7665 15.9143 18.2178C15.429 18.6691 14.854 19.0131 14.2268 19.2272C13.5997 19.4413 12.9344 19.5207 12.2744 19.4604C8.43442 19.4604 6.58299 16.2032 6.58299 12.5004C6.58299 8.79752 8.57156 5.54038 12.2744 5.54038C13.9092 5.48614 15.511 6.00795 16.8001 7.01467C16.9032 7.0821 17.0198 7.12606 17.1417 7.14342C17.2636 7.16079 17.3878 7.15114 17.5056 7.11515C17.6234 7.07917 17.7318 7.01773 17.8232 6.93519C17.9146 6.85265 17.9867 6.75103 18.0344 6.63752L19.1144 4.16895C19.2032 3.987 19.2262 3.77987 19.1793 3.5829C19.1324 3.38593 19.0186 3.21135 18.8573 3.08895C16.8915 1.91346 14.6328 1.31907 12.343 1.37467C6.10299 1.35752 1.85156 6.20895 1.85156 12.5004C1.85156 18.7918 6.12013 23.6432 12.2744 23.6432C18.4287 23.6432 22.1487 19.2547 22.1487 13.3575C22.1487 11.4718 21.3944 10.4947 19.4744 10.4947Z" stroke="#A0A1B1" stroke-width="1.71429" stroke-linecap="round" stroke-linejoin="round"/>
</svg>
