<svg width="140" height="124" viewBox="0 0 140 124" fill="none" xmlns="http://www.w3.org/2000/svg">
<g clip-path="url(#clip0_742_45650)">
<rect width="140" height="124" rx="13" fill="url(#paint0_linear_742_45650)"/>
<g filter="url(#filter0_d_742_45650)">
<circle cx="44" cy="54" r="74" fill="#232328"/>
<circle cx="44" cy="54" r="70.6484" stroke="url(#paint1_linear_742_45650)" stroke-width="6.70312"/>
</g>
<g filter="url(#filter1_d_742_45650)">
<circle cx="44" cy="54" r="74" fill="url(#paint2_linear_742_45650)" fill-opacity="0.3" shape-rendering="crispEdges"/>
<circle cx="44" cy="54" r="69" stroke="url(#paint3_linear_742_45650)" stroke-width="10" shape-rendering="crispEdges"/>
</g>
<path d="M35.461 69V63.2065H40.0763C40.6883 63.2065 41.2752 62.9623 41.708 62.5277C42.1408 62.0931 42.3839 61.5037 42.3839 60.889V51.6194C42.3835 49.3542 41.7819 47.13 40.6412 45.1758C39.5004 43.2217 37.8617 41.6081 35.8937 40.5012C33.9257 39.3944 31.6995 38.8342 29.4442 38.8784C27.189 38.9226 24.9863 39.5696 23.0628 40.7527C21.1393 41.9359 19.5645 43.6124 18.5006 45.6098C17.4366 47.6072 16.922 49.8533 17.0096 52.1168C17.0972 54.3803 17.7839 56.5795 18.999 58.4879C20.2141 60.3963 21.9137 61.9451 23.9229 62.9747V69" stroke="white" stroke-opacity="0.9" stroke-width="4" stroke-linecap="square" stroke-linejoin="round"/>
<path d="M60.2734 69V63.2065H55.6581C55.0461 63.2065 54.4591 62.9623 54.0264 62.5277C53.5936 62.0931 53.3505 61.5037 53.3505 60.889V51.6194C53.3509 49.3542 53.9524 47.13 55.0932 45.1758C56.2339 43.2217 57.8727 41.6081 59.8407 40.5012C61.8087 39.3944 64.0349 38.8342 66.2901 38.8784C68.5453 38.9226 70.7481 39.5696 72.6716 40.7527C74.5951 41.9359 76.1699 43.6124 77.2338 45.6098C78.2977 47.6072 78.8124 49.8533 78.7248 52.1168C78.6372 54.3803 77.9505 56.5795 76.7354 58.4879C75.5203 60.3963 73.8206 61.9451 71.8115 62.9747V69" stroke="white" stroke-opacity="0.9" stroke-width="4" stroke-linecap="square" stroke-linejoin="round"/>
</g>
<defs>
<filter id="filter0_d_742_45650" x="-38.9375" y="-20" width="165.875" height="165.875" filterUnits="userSpaceOnUse" color-interpolation-filters="sRGB">
<feFlood flood-opacity="0" result="BackgroundImageFix"/>
<feColorMatrix in="SourceAlpha" type="matrix" values="0 0 0 0 0 0 0 0 0 0 0 0 0 0 0 0 0 0 127 0" result="hardAlpha"/>
<feOffset dy="8.9375"/>
<feGaussianBlur stdDeviation="4.46875"/>
<feComposite in2="hardAlpha" operator="out"/>
<feColorMatrix type="matrix" values="0 0 0 0 0 0 0 0 0 0 0 0 0 0 0 0 0 0 0.25 0"/>
<feBlend mode="normal" in2="BackgroundImageFix" result="effect1_dropShadow_742_45650"/>
<feBlend mode="normal" in="SourceGraphic" in2="effect1_dropShadow_742_45650" result="shape"/>
</filter>
<filter id="filter1_d_742_45650" x="-38.9375" y="-20" width="165.875" height="165.875" filterUnits="userSpaceOnUse" color-interpolation-filters="sRGB">
<feFlood flood-opacity="0" result="BackgroundImageFix"/>
<feColorMatrix in="SourceAlpha" type="matrix" values="0 0 0 0 0 0 0 0 0 0 0 0 0 0 0 0 0 0 127 0" result="hardAlpha"/>
<feOffset dy="8.9375"/>
<feGaussianBlur stdDeviation="4.46875"/>
<feComposite in2="hardAlpha" operator="out"/>
<feColorMatrix type="matrix" values="0 0 0 0 0 0 0 0 0 0 0 0 0 0 0 0 0 0 0.25 0"/>
<feBlend mode="normal" in2="BackgroundImageFix" result="effect1_dropShadow_742_45650"/>
<feBlend mode="normal" in="SourceGraphic" in2="effect1_dropShadow_742_45650" result="shape"/>
</filter>
<linearGradient id="paint0_linear_742_45650" x1="10.1942" y1="-23.4757" x2="252.196" y2="249.752" gradientUnits="userSpaceOnUse">
<stop stop-color="#39F0FC"/>
<stop offset="1"/>
</linearGradient>
<linearGradient id="paint1_linear_742_45650" x1="-19.2233" y1="-48.0194" x2="271.748" y2="242.951" gradientUnits="userSpaceOnUse">
<stop stop-color="#39F0FC"/>
<stop offset="1"/>
</linearGradient>
<linearGradient id="paint2_linear_742_45650" x1="-19.2233" y1="-48.0194" x2="271.748" y2="242.951" gradientUnits="userSpaceOnUse">
<stop stop-color="#39F0FC"/>
<stop offset="1" stop-opacity="0"/>
</linearGradient>
<linearGradient id="paint3_linear_742_45650" x1="-19.2233" y1="-48.0194" x2="271.748" y2="242.951" gradientUnits="userSpaceOnUse">
<stop stop-color="#39F0FC"/>
<stop offset="1"/>
</linearGradient>
<clipPath id="clip0_742_45650">
<rect width="140" height="124" rx="13" fill="white"/>
</clipPath>
</defs>
</svg>
