<svg width="142" height="47" viewBox="0 0 142 47" fill="none" xmlns="http://www.w3.org/2000/svg">
<path d="M98.1493 36.094L109.895 0.649257L118.265 5.5197L108.089 36.094H98.1493Z" fill="white"/>
<path d="M7.69399 9.52802L2.71837 0L26.8801 6.77263e-07C31.5404 8.07893e-07 34.8442 4.58309 33.4041 9.05014L27.8974 26.1312H13.1521L9.94018 36.0941H0L6.28347 16.6035L21.0289 16.6032L23.3099 9.52802H7.69399Z" fill="white"/>
<path d="M26.8616 36.0939L35.4051 9.59279H45.3453L36.8017 36.0939H26.8616Z" fill="white"/>
<path fill-rule="evenodd" clip-rule="evenodd" d="M66.8483 36.094H56.6372L51.169 30.2217L49.2759 36.094H39.3357L47.7602 9.96227L65.8311 9.96225C70.4914 9.96224 73.7952 14.5453 72.3551 19.0124L66.8483 36.094ZM62.2609 19.4903L54.6287 19.4903L54.3953 20.2143L60.0647 26.3026L62.2609 19.4903Z" fill="white"/>
<path d="M86.7912 26.5657L92.1439 9.96224H102.084L90.1437 47L81.7737 42.1296L83.7196 36.0937L78.3345 36.0938C73.6741 36.0939 70.3702 31.5108 71.8103 27.0436L77.3171 9.96227H87.2573L81.9046 26.5657H86.7912Z" fill="white"/>
<path d="M141.289 19.4903H141.305V19.4385L141.443 19.0124C142.883 14.5453 139.579 9.96225 134.919 9.96225L119.044 9.96227L110.62 36.094H120.56L125.913 19.4903H131.348L125.996 36.094H135.936L141.289 19.4903Z" fill="white"/>
</svg>
