<svg width="54" height="54" viewBox="0 0 54 54" fill="none" xmlns="http://www.w3.org/2000/svg">
<g clip-path="url(#clip0_742_36742)">
<path d="M15.4277 30.8573L23.3349 37.183C23.5472 37.3579 23.7959 37.4832 24.0628 37.55C24.3297 37.6167 24.6081 37.6231 24.8777 37.5687C25.15 37.5176 25.408 37.4085 25.6343 37.2488C25.8606 37.089 26.0499 36.8824 26.1892 36.643L38.5706 15.4287" stroke="#BCFE01" stroke-width="3.85714" stroke-linecap="round" stroke-linejoin="round"/>
<path d="M26.9992 52.0716C40.8457 52.0716 52.0706 40.8467 52.0706 27.0001C52.0706 13.1536 40.8457 1.92871 26.9992 1.92871C13.1526 1.92871 1.92773 13.1536 1.92773 27.0001C1.92773 40.8467 13.1526 52.0716 26.9992 52.0716Z" stroke="#BCFE01" stroke-width="3.85714" stroke-linecap="round" stroke-linejoin="round"/>
</g>
<defs>
<clipPath id="clip0_742_36742">
<rect width="54" height="54" fill="white"/>
</clipPath>
</defs>
</svg>
