<svg width="652" height="126" viewBox="0 0 652 126" fill="none" xmlns="http://www.w3.org/2000/svg">
<g clip-path="url(#clip0_713_19945)">
<rect width="652" height="126" rx="20" fill="url(#paint0_linear_713_19945)" fill-opacity="0.5"/>
<rect width="652" height="126" rx="20" fill="url(#paint1_linear_713_19945)" fill-opacity="0.2"/>
<path d="M882.358 127L951 -3L605.238 -2.99999C538.547 -2.99999 491.269 62.8334 511.877 127H882.358Z" fill="url(#paint2_linear_713_19945)"/>
<path d="M939.217 134L1021 -21L609.045 -21C529.587 -21 473.257 57.4937 497.811 134H939.217Z" stroke="url(#paint3_linear_713_19945)"/>
<path d="M33.7 38.72L34.5965 38.277L33.2366 35.5247L32.7146 38.55L33.7 38.72ZM31.236 53V54H32.0782L32.2214 53.17L31.236 53ZM26.476 53L25.4919 52.8224L25.2794 54H26.476V53ZM30.144 32.672V31.672H29.3083L29.1599 32.4944L30.144 32.672ZM35.8 32.672L36.6997 32.2356L36.4264 31.672H35.8V32.672ZM42.632 46.756L41.7323 47.1924L43.0925 49.9965L43.6177 46.9245L42.632 46.756ZM45.04 32.672V31.672H44.1965L44.0543 32.5035L45.04 32.672ZM49.772 32.672L50.757 32.8443L50.9621 31.672H49.772V32.672ZM46.216 53V54H47.0563L47.201 53.1723L46.216 53ZM40.756 53L39.8595 53.443L40.1347 54H40.756V53ZM32.7146 38.55L30.2506 52.83L32.2214 53.17L34.6854 38.89L32.7146 38.55ZM31.236 52H26.476V54H31.236V52ZM27.4601 53.1776L31.1281 32.8496L29.1599 32.4944L25.4919 52.8224L27.4601 53.1776ZM30.144 33.672H35.8V31.672H30.144V33.672ZM34.9003 33.1084L41.7323 47.1924L43.5317 46.3196L36.6997 32.2356L34.9003 33.1084ZM43.6177 46.9245L46.0257 32.8405L44.0543 32.5035L41.6463 46.5875L43.6177 46.9245ZM45.04 33.672H49.772V31.672H45.04V33.672ZM48.787 32.4997L45.231 52.8277L47.201 53.1723L50.757 32.8443L48.787 32.4997ZM46.216 52H40.756V54H46.216V52ZM41.6525 52.557L34.5965 38.277L32.8035 39.163L39.8595 53.443L41.6525 52.557ZM54.478 32.672V31.672H53.6389L53.4932 32.4984L54.478 32.672ZM70.494 32.672L71.4795 32.8415L71.6806 31.672H70.494V32.672ZM69.738 37.068V38.068H70.5807L70.7235 37.2375L69.738 37.068ZM58.622 37.068V36.068H57.7802L57.6366 36.8975L58.622 37.068ZM57.866 41.436L56.8806 41.2655L56.678 42.436H57.866V41.436ZM67.274 41.436L68.2593 41.6065L68.4619 40.436H67.274V41.436ZM66.518 45.804V46.804H67.3598L67.5033 45.9745L66.518 45.804ZM57.082 45.804V44.804H56.2419L56.097 45.6315L57.082 45.804ZM55.822 53V54H56.6621L56.807 53.1725L55.822 53ZM50.894 53L49.9092 52.8264L49.7022 54H50.894V53ZM54.478 33.672H70.494V31.672H54.478V33.672ZM69.5084 32.5025L68.7524 36.8985L70.7235 37.2375L71.4795 32.8415L69.5084 32.5025ZM69.738 36.068H58.622V38.068H69.738V36.068ZM57.6366 36.8975L56.8806 41.2655L58.8513 41.6065L59.6073 37.2385L57.6366 36.8975ZM57.866 42.436H67.274V40.436H57.866V42.436ZM66.2886 41.2655L65.5326 45.6335L67.5033 45.9745L68.2593 41.6065L66.2886 41.2655ZM66.518 44.804H57.082V46.804H66.518V44.804ZM56.097 45.6315L54.837 52.8275L56.807 53.1725L58.067 45.9765L56.097 45.6315ZM55.822 52H50.894V54H55.822V52ZM51.8788 53.1736L55.4628 32.8456L53.4932 32.4984L49.9092 52.8264L51.8788 53.1736ZM73.1538 32.672V31.672H72.3146L72.1689 32.4984L73.1538 32.672ZM78.1097 32.672L79.0944 32.8465L79.3025 31.672H78.1097V32.672ZM75.2817 48.632L74.2971 48.4575L74.089 49.632H75.2817V48.632ZM84.8577 48.632L85.842 48.8087L86.0532 47.632H84.8577V48.632ZM84.0737 53V54H84.9102L85.058 53.1767L84.0737 53ZM69.5698 53L68.5849 52.8264L68.378 54H69.5698V53ZM73.1538 33.672H78.1097V31.672H73.1538V33.672ZM77.1251 32.4975L74.2971 48.4575L76.2664 48.8065L79.0944 32.8465L77.1251 32.4975ZM75.2817 49.632H84.8577V47.632H75.2817V49.632ZM83.8735 48.4553L83.0895 52.8233L85.058 53.1767L85.842 48.8087L83.8735 48.4553ZM84.0737 52H69.5698V54H84.0737V52ZM70.5546 53.1736L74.1386 32.8456L72.1689 32.4984L68.5849 52.8264L70.5546 53.1736Z" fill="white"/>
<path d="M110.48 32.952H113.196L109.668 53H106.952L110.48 32.952ZM125.847 32.952H128.563L125.035 53H122.319L125.847 32.952ZM141.214 32.952H143.93L140.402 53H137.686L141.214 32.952ZM163.298 32.672H170.914C173.397 32.672 175.376 32.84 176.85 33.176C178.344 33.4933 179.436 34.044 180.126 34.828C180.836 35.612 181.19 36.6947 181.19 38.076C181.19 38.7107 181.116 39.4573 180.966 40.316C180.63 42.22 180.033 43.6667 179.174 44.656C178.334 45.6267 177.102 46.2987 175.478 46.672C173.873 47.0267 171.614 47.204 168.702 47.204H165.678L164.642 53H159.714L163.298 32.672ZM170.13 42.808C171.549 42.808 172.622 42.752 173.35 42.64C174.078 42.528 174.666 42.2667 175.114 41.856C175.562 41.4453 175.861 40.8013 176.01 39.924C176.066 39.644 176.094 39.3827 176.094 39.14C176.094 38.58 175.936 38.1507 175.618 37.852C175.32 37.5533 174.844 37.348 174.19 37.236C173.556 37.124 172.688 37.068 171.586 37.068H167.47L166.462 42.808H170.13ZM185.447 32.672H190.403L187.575 48.632H197.151L196.367 53H181.863L185.447 32.672ZM209.73 32.672H215.694L220.482 53H215.078L214.462 49.808H204.886L203.15 53H197.802L209.73 32.672ZM213.594 45.44L211.942 36.956L207.294 45.44H213.594ZM225.702 47.12L220.382 32.672H225.87L228.95 42.584L235.278 32.672H241.102L230.602 47.232L229.594 53H224.722L225.702 47.12ZM247.796 53.448C241.804 53.448 238.808 50.8627 238.808 45.692C238.808 44.7587 238.911 43.6947 239.116 42.5C239.732 39.028 240.992 36.452 242.896 34.772C244.819 33.0733 247.507 32.224 250.96 32.224C256.933 32.224 259.92 34.8187 259.92 40.008C259.92 40.9413 259.817 42.0053 259.612 43.2C258.996 46.672 257.736 49.248 255.832 50.928C253.928 52.608 251.249 53.448 247.796 53.448ZM244.016 42.78C243.829 43.5827 243.736 44.3667 243.736 45.132C243.736 47.876 245.211 49.248 248.16 49.248C249.989 49.248 251.427 48.7253 252.472 47.68C253.536 46.616 254.292 45.0387 254.74 42.948C254.927 41.9773 255.02 41.184 255.02 40.568C255.02 39.224 254.665 38.2067 253.956 37.516C253.265 36.8067 252.164 36.452 250.652 36.452C248.86 36.452 247.423 36.9747 246.34 38.02C245.257 39.0653 244.483 40.652 244.016 42.78ZM265.126 32.672H281.142L280.386 37.068H269.27L268.514 41.436H277.922L277.166 45.804H267.73L266.47 53H261.542L265.126 32.672ZM283.802 32.672H299.818L299.062 37.068H287.946L287.19 41.436H296.598L295.842 45.804H286.406L285.146 53H280.218L283.802 32.672ZM307.557 53.448C304.757 53.448 302.573 52.972 301.005 52.02C299.437 51.068 298.653 49.6493 298.653 47.764C298.653 47.3907 298.7 46.924 298.793 46.364L303.637 46.392C303.6 46.6533 303.581 46.8493 303.581 46.98C303.581 47.7827 303.964 48.3893 304.729 48.8C305.494 49.2107 306.745 49.416 308.481 49.416C309.47 49.416 310.329 49.3133 311.057 49.108C311.804 48.884 312.242 48.4547 312.373 47.82C312.392 47.764 312.401 47.68 312.401 47.568C312.401 46.9707 312.046 46.5227 311.337 46.224C310.628 45.9067 309.508 45.5707 307.977 45.216C306.334 44.824 304.99 44.4413 303.945 44.068C302.9 43.676 301.994 43.088 301.229 42.304C300.482 41.52 300.109 40.484 300.109 39.196C300.109 38.8413 300.156 38.4027 300.249 37.88C300.604 35.9573 301.593 34.5387 303.217 33.624C304.86 32.6907 307.193 32.224 310.217 32.224C316.041 32.224 318.953 33.988 318.953 37.516C318.953 37.908 318.906 38.384 318.813 38.944L313.997 38.916C314.034 38.6547 314.053 38.4493 314.053 38.3C314.053 37.6653 313.754 37.1707 313.157 36.816C312.56 36.4427 311.44 36.256 309.797 36.256C308.49 36.256 307.482 36.4147 306.773 36.732C306.064 37.0493 305.709 37.544 305.709 38.216C305.709 38.6267 305.896 38.972 306.269 39.252C306.642 39.5133 307.109 39.728 307.669 39.896C308.229 40.064 309.032 40.2693 310.077 40.512C311.682 40.8667 313.008 41.24 314.053 41.632C315.117 42.0053 316.022 42.584 316.769 43.368C317.534 44.1333 317.917 45.16 317.917 46.448C317.917 46.8773 317.88 47.288 317.805 47.68C317.45 49.7147 316.405 51.1893 314.669 52.104C312.952 53 310.581 53.448 307.557 53.448Z" fill="url(#paint4_linear_713_19945)"/>
<rect x="360" y="88" width="2.9689" height="334" rx="1.48445" transform="rotate(90 360 88)" fill="url(#paint5_linear_713_19945)"/>
<path fill-rule="evenodd" clip-rule="evenodd" d="M571.461 79.6541C563.862 71.8565 560.756 59.4952 563.855 44.4257L564.163 42.9251L565.663 42.6116C579.126 39.7967 590.987 43.4246 598.554 51.4885C606.122 59.5528 609.086 71.721 605.449 85.3532L605.094 86.6862L603.754 87.017C590.746 90.2299 579.075 87.4664 571.461 79.6541ZM579.827 74.0874C583.974 78.2342 588.855 81.5852 593.865 83.6645C585.983 83.7754 579.399 81.1129 574.803 76.397C569.37 70.8219 566.369 62.0209 567.606 50.5588C568.783 59.6127 573.614 67.8748 579.827 74.0874ZM595.151 54.682C600.921 60.8299 603.737 70.1008 601.642 81.0875C597.807 80.4834 593.688 78.7845 589.759 76.2048L594.648 71.3164L591.348 68.0166L585.973 73.391C584.998 72.5767 584.047 71.7076 583.127 70.7876C582.802 70.4628 582.482 70.1325 582.167 69.797L588.814 63.1497L585.515 59.8499L579.154 66.2103C578.082 64.7792 577.103 63.2802 576.237 61.7268L581.814 56.1497L578.515 52.8499L574.122 57.2425C572.777 53.7807 572.01 50.1324 571.998 46.4221C581.716 45.7373 589.811 48.9912 595.151 54.682Z" fill="white" fill-opacity="0.6"/>
<circle cx="2" cy="6" r="1" fill="white" fill-opacity="0.1"/>
<circle cx="9" cy="6" r="1" fill="white" fill-opacity="0.1"/>
<circle cx="16" cy="6" r="1" fill="white" fill-opacity="0.1"/>
<circle cx="23" cy="6" r="1" fill="white" fill-opacity="0.1"/>
<circle cx="30" cy="6" r="1" fill="white" fill-opacity="0.1"/>
<circle cx="37" cy="6" r="1" fill="white" fill-opacity="0.1"/>
<circle cx="44" cy="6" r="1" fill="white" fill-opacity="0.1"/>
<circle cx="51" cy="6" r="1" fill="white" fill-opacity="0.1"/>
<circle cx="58" cy="6" r="1" fill="white" fill-opacity="0.1"/>
<circle cx="65" cy="6" r="1" fill="white" fill-opacity="0.1"/>
<circle cx="72" cy="6" r="1" fill="white" fill-opacity="0.1"/>
<circle cx="79" cy="6" r="1" fill="white" fill-opacity="0.1"/>
<circle cx="2" cy="15" r="1" fill="white" fill-opacity="0.1"/>
<circle cx="9" cy="15" r="1" fill="white" fill-opacity="0.1"/>
<circle cx="16" cy="15" r="1" fill="white" fill-opacity="0.1"/>
<circle cx="23" cy="15" r="1" fill="white" fill-opacity="0.1"/>
<circle cx="30" cy="15" r="1" fill="white" fill-opacity="0.1"/>
<circle cx="37" cy="15" r="1" fill="white" fill-opacity="0.1"/>
<circle cx="44" cy="15" r="1" fill="white" fill-opacity="0.1"/>
<circle cx="51" cy="15" r="1" fill="white" fill-opacity="0.1"/>
<circle cx="58" cy="15" r="1" fill="white" fill-opacity="0.1"/>
<circle cx="65" cy="15" r="1" fill="white" fill-opacity="0.1"/>
<circle cx="72" cy="15" r="1" fill="white" fill-opacity="0.1"/>
<circle cx="79" cy="15" r="1" fill="white" fill-opacity="0.1"/>
<circle cx="2" cy="24" r="1" fill="white" fill-opacity="0.1"/>
<circle cx="9" cy="24" r="1" fill="white" fill-opacity="0.1"/>
<circle cx="16" cy="24" r="1" fill="white" fill-opacity="0.1"/>
<circle cx="23" cy="24" r="1" fill="white" fill-opacity="0.1"/>
<circle cx="30" cy="24" r="1" fill="white" fill-opacity="0.1"/>
<circle cx="37" cy="24" r="1" fill="white" fill-opacity="0.1"/>
<circle cx="44" cy="24" r="1" fill="white" fill-opacity="0.1"/>
<circle cx="51" cy="24" r="1" fill="white" fill-opacity="0.1"/>
<circle cx="58" cy="24" r="1" fill="white" fill-opacity="0.1"/>
<circle cx="65" cy="24" r="1" fill="white" fill-opacity="0.1"/>
<circle cx="72" cy="24" r="1" fill="white" fill-opacity="0.1"/>
<circle cx="79" cy="24" r="1" fill="white" fill-opacity="0.1"/>
<circle cx="2" cy="33" r="1" fill="white" fill-opacity="0.1"/>
<circle cx="9" cy="33" r="1" fill="white" fill-opacity="0.1"/>
<circle cx="16" cy="33" r="1" fill="white" fill-opacity="0.1"/>
<circle cx="23" cy="33" r="1" fill="white" fill-opacity="0.1"/>
<circle cx="30" cy="33" r="1" fill="white" fill-opacity="0.1"/>
<circle cx="37" cy="33" r="1" fill="white" fill-opacity="0.1"/>
<circle cx="44" cy="33" r="1" fill="white" fill-opacity="0.1"/>
<circle cx="51" cy="33" r="1" fill="white" fill-opacity="0.1"/>
<circle cx="58" cy="33" r="1" fill="white" fill-opacity="0.1"/>
<circle cx="65" cy="33" r="1" fill="white" fill-opacity="0.1"/>
<circle cx="72" cy="33" r="1" fill="white" fill-opacity="0.1"/>
<circle cx="79" cy="33" r="1" fill="white" fill-opacity="0.1"/>
<circle cx="2" cy="42" r="1" fill="white" fill-opacity="0.1"/>
<circle cx="9" cy="42" r="1" fill="white" fill-opacity="0.1"/>
<circle cx="16" cy="42" r="1" fill="white" fill-opacity="0.1"/>
<circle cx="23" cy="42" r="1" fill="white" fill-opacity="0.1"/>
<circle cx="30" cy="42" r="1" fill="white" fill-opacity="0.1"/>
<circle cx="37" cy="42" r="1" fill="white" fill-opacity="0.1"/>
<circle cx="44" cy="42" r="1" fill="white" fill-opacity="0.1"/>
<circle cx="51" cy="42" r="1" fill="white" fill-opacity="0.1"/>
<circle cx="58" cy="42" r="1" fill="white" fill-opacity="0.1"/>
<circle cx="65" cy="42" r="1" fill="white" fill-opacity="0.1"/>
<circle cx="72" cy="42" r="1" fill="white" fill-opacity="0.1"/>
<circle cx="79" cy="42" r="1" fill="white" fill-opacity="0.1"/>
<circle cx="2" cy="51" r="1" fill="white" fill-opacity="0.1"/>
<circle cx="9" cy="51" r="1" fill="white" fill-opacity="0.1"/>
<circle cx="16" cy="51" r="1" fill="white" fill-opacity="0.1"/>
<circle cx="23" cy="51" r="1" fill="white" fill-opacity="0.1"/>
<circle cx="30" cy="51" r="1" fill="white" fill-opacity="0.1"/>
<circle cx="37" cy="51" r="1" fill="white" fill-opacity="0.1"/>
<circle cx="44" cy="51" r="1" fill="white" fill-opacity="0.1"/>
<circle cx="51" cy="51" r="1" fill="white" fill-opacity="0.1"/>
<circle cx="58" cy="51" r="1" fill="white" fill-opacity="0.1"/>
<circle cx="65" cy="51" r="1" fill="white" fill-opacity="0.1"/>
<circle cx="72" cy="51" r="1" fill="white" fill-opacity="0.1"/>
<circle cx="79" cy="51" r="1" fill="white" fill-opacity="0.1"/>
</g>
<defs>
<linearGradient id="paint0_linear_713_19945" x1="47.4757" y1="-23.8544" x2="139.773" y2="453.746" gradientUnits="userSpaceOnUse">
<stop stop-color="#4D4D4D"/>
<stop offset="1"/>
</linearGradient>
<linearGradient id="paint1_linear_713_19945" x1="326" y1="-2.57925e-05" x2="660.5" y2="165" gradientUnits="userSpaceOnUse">
<stop stop-color="#8927AC"/>
<stop offset="1" stop-opacity="0"/>
</linearGradient>
<linearGradient id="paint2_linear_713_19945" x1="918.67" y1="-27.6117" x2="780.822" y2="443.192" gradientUnits="userSpaceOnUse">
<stop stop-color="#C939FC"/>
<stop offset="1"/>
</linearGradient>
<linearGradient id="paint3_linear_713_19945" x1="756.5" y1="-21" x2="684.22" y2="225.686" gradientUnits="userSpaceOnUse">
<stop stop-color="#D9D9D9"/>
<stop offset="1" stop-color="#D9D9D9" stop-opacity="0"/>
</linearGradient>
<linearGradient id="paint4_linear_713_19945" x1="213" y1="-6.6923" x2="270.97" y2="102.62" gradientUnits="userSpaceOnUse">
<stop stop-color="white"/>
<stop offset="1" stop-color="#B94BE0"/>
</linearGradient>
<linearGradient id="paint5_linear_713_19945" x1="360.216" y1="24.767" x2="371.889" y2="24.8708" gradientUnits="userSpaceOnUse">
<stop stop-color="#C939FC"/>
<stop offset="1"/>
</linearGradient>
<clipPath id="clip0_713_19945">
<rect width="652" height="126" rx="20" fill="white"/>
</clipPath>
</defs>
</svg>
