<svg width="652" height="126" viewBox="0 0 652 126" fill="none" xmlns="http://www.w3.org/2000/svg">
<g clip-path="url(#clip0_713_19973)">
<rect width="652" height="126" rx="20" fill="url(#paint0_linear_713_19973)" fill-opacity="0.5"/>
<rect width="652" height="126" rx="20" fill="url(#paint1_linear_713_19973)" fill-opacity="0.2"/>
<path d="M30.06 32.672V31.672H29.2209L29.0752 32.4984L30.06 32.672ZM43.612 33.176L43.3898 34.151L43.397 34.1526L43.4041 34.1542L43.612 33.176ZM46.888 34.828L46.1376 35.4891L46.1465 35.4989L46.888 34.828ZM47.728 40.316L48.7128 40.4898L48.7132 40.4873L47.728 40.316ZM45.936 44.656L45.1808 44.0005L45.1798 44.0016L45.936 44.656ZM42.24 46.672L42.4557 47.6485L42.464 47.6466L42.24 46.672ZM32.44 47.204V46.204H31.6029L31.4556 47.028L32.44 47.204ZM31.404 53V54H32.2411L32.3884 53.176L31.404 53ZM26.476 53L25.4912 52.8264L25.2843 54H26.476V53ZM40.112 42.64L40.2641 43.6284L40.112 42.64ZM41.876 41.856L41.2003 41.1188H41.2003L41.876 41.856ZM42.772 39.924L41.7914 39.7279L41.7886 39.742L41.7862 39.7562L42.772 39.924ZM42.38 37.852L41.6729 38.5591L41.6836 38.5698L41.6946 38.5802L42.38 37.852ZM40.952 37.236L40.7782 38.2208L40.783 38.2216L40.952 37.236ZM34.232 37.068V36.068H33.3923L33.2471 36.895L34.232 37.068ZM33.224 42.808L32.2391 42.635L32.0331 43.808H33.224V42.808ZM30.06 33.672H37.676V31.672H30.06V33.672ZM37.676 33.672C40.125 33.672 42.0194 33.8388 43.3898 34.151L43.8342 32.201C42.2552 31.8412 40.1923 31.672 37.676 31.672V33.672ZM43.4041 34.1542C44.7803 34.4466 45.6411 34.9254 46.1376 35.489L47.6384 34.167C46.7535 33.1626 45.4304 32.5401 43.8199 32.1978L43.4041 34.1542ZM46.1465 35.4989C46.6437 36.0485 46.952 36.8647 46.952 38.076H48.952C48.952 36.5246 48.551 35.1755 47.6295 34.1571L46.1465 35.4989ZM46.952 38.076C46.952 38.6365 46.8856 39.3233 46.7428 40.1447L48.7132 40.4873C48.869 39.5914 48.952 38.7848 48.952 38.076H46.952ZM46.7432 40.1422C46.4247 41.9472 45.8772 43.1982 45.1808 44.0005L46.6912 45.3115C47.7122 44.1351 48.3593 42.4928 48.7128 40.4898L46.7432 40.1422ZM45.1798 44.0016C44.5151 44.7698 43.4947 45.3575 42.016 45.6974L42.464 47.6466C44.2333 47.2399 45.6769 46.4835 46.6922 45.3104L45.1798 44.0016ZM42.0243 45.6955C40.524 46.027 38.3498 46.204 35.464 46.204V48.204C38.4022 48.204 40.7453 48.0263 42.4557 47.6485L42.0243 45.6955ZM35.464 46.204H32.44V48.204H35.464V46.204ZM31.4556 47.028L30.4196 52.824L32.3884 53.176L33.4244 47.38L31.4556 47.028ZM31.404 52H26.476V54H31.404V52ZM27.4608 53.1736L31.0448 32.8456L29.0752 32.4984L25.4912 52.8264L27.4608 53.1736ZM36.892 43.808C38.3241 43.808 39.4588 43.7523 40.2641 43.6284L39.9599 41.6516C39.3092 41.7517 38.2972 41.808 36.892 41.808V43.808ZM40.2641 43.6284C41.1457 43.4927 41.9294 43.1636 42.5517 42.5932L41.2003 41.1188C40.9266 41.3697 40.5343 41.5633 39.9599 41.6516L40.2641 43.6284ZM42.5517 42.5932C43.2241 41.9768 43.5879 41.0901 43.7578 40.0918L41.7862 39.7562C41.6574 40.5125 41.4239 40.9139 41.2003 41.1188L42.5517 42.5932ZM43.7526 40.1201C43.8193 39.7865 43.856 39.4589 43.856 39.14H41.856C41.856 39.3065 41.8367 39.5015 41.7914 39.7279L43.7526 40.1201ZM43.856 39.14C43.856 38.3873 43.6369 37.6617 43.0654 37.1238L41.6946 38.5802C41.7578 38.6397 41.856 38.7727 41.856 39.14H43.856ZM43.0871 37.1449C42.5804 36.6381 41.8705 36.3789 41.121 36.2504L40.783 38.2216C41.3401 38.3171 41.5823 38.4685 41.6729 38.5591L43.0871 37.1449ZM41.1258 36.2512C40.4075 36.1245 39.4729 36.068 38.348 36.068V38.068C39.4257 38.068 40.2272 38.1235 40.7782 38.2208L41.1258 36.2512ZM38.348 36.068H34.232V38.068H38.348V36.068ZM33.2471 36.895L32.2391 42.635L34.2089 42.981L35.2169 37.241L33.2471 36.895ZM33.224 43.808H36.892V41.808H33.224V43.808ZM51.4804 51.516L50.8179 52.265L51.4804 51.516ZM49.6044 42.528L48.6196 42.3542L48.6189 42.3586L49.6044 42.528ZM53.3564 34.772L54.0217 35.5186L54.0258 35.5149L53.3564 34.772ZM67.5524 33.792L66.9592 34.5971L66.9643 34.6007L67.5524 33.792ZM69.5404 40.064L69.5343 41.064L70.3741 41.0691L70.5243 40.2429L69.5404 40.064ZM64.9484 40.036L63.962 39.8716L63.7692 41.0288L64.9423 41.036L64.9484 40.036ZM63.8564 37.264L63.2597 38.0665L63.2695 38.0736L63.8564 37.264ZM56.7444 37.992L57.4515 38.6991L56.7444 37.992ZM54.5324 42.668L55.5096 42.8804L55.5102 42.8775L54.5324 42.668ZM55.3444 48.184L54.6466 48.9002L55.3444 48.184ZM61.8124 48.856L62.1157 49.809L62.1287 49.8047L61.8124 48.856ZM63.4644 47.904L64.2695 48.4972L64.4074 48.31L64.4486 48.0812L63.4644 47.904ZM63.7164 46.504L64.7006 46.6812L64.9125 45.504H63.7164V46.504ZM59.8244 46.504L58.8392 46.3329L58.6359 47.504H59.8244V46.504ZM60.5244 42.472V41.472H59.6831L59.5392 42.3009L60.5244 42.472ZM69.1484 42.472L70.133 42.6468L70.3416 41.472H69.1484V42.472ZM67.7764 50.2L68.4673 50.923L68.7038 50.697L68.761 50.3748L67.7764 50.2ZM64.2484 52.44L64.6588 53.3519L64.6639 53.3496L64.2484 52.44ZM58.1724 52.448C55.2834 52.448 53.339 51.825 52.143 50.767L50.8179 52.265C52.5339 53.783 55.0508 54.448 58.1724 54.448V52.448ZM52.143 50.767C50.9641 49.7241 50.2964 48.1146 50.2964 45.748H48.2964C48.2964 48.4961 49.0847 50.7319 50.8179 52.265L52.143 50.767ZM50.2964 45.748C50.2964 44.8657 50.3918 43.8504 50.59 42.6974L48.6189 42.3586C48.4064 43.5949 48.2964 44.7263 48.2964 45.748H50.2964ZM50.5892 42.7018C51.1816 39.3449 52.3604 36.9989 54.0217 35.5186L52.6912 34.0254C50.5818 35.9051 49.2593 38.7298 48.6197 42.3542L50.5892 42.7018ZM54.0258 35.5149C55.6728 34.031 58.0453 33.224 61.2804 33.224V31.224C57.7209 31.224 54.8107 32.1157 52.6871 34.0291L54.0258 35.5149ZM61.2804 33.224C63.9426 33.224 65.7853 33.732 66.9592 34.5971L68.1456 32.9869C66.4823 31.7613 64.1436 31.224 61.2804 31.224V33.224ZM66.9643 34.6007C68.1107 35.4345 68.7084 36.6273 68.7084 38.328H70.7084C70.7084 36.0713 69.8688 34.2402 68.1406 32.9833L66.9643 34.6007ZM68.7084 38.328C68.7084 38.8009 68.6595 39.3192 68.5566 39.8851L70.5243 40.2429C70.6454 39.5768 70.7084 38.9378 70.7084 38.328H68.7084ZM69.5465 39.064L64.9545 39.036L64.9423 41.036L69.5343 41.064L69.5465 39.064ZM65.9348 40.2004C65.967 40.0072 65.9764 39.784 65.9764 39.56H63.9764C63.9764 39.7467 63.9672 39.8408 63.962 39.8716L65.9348 40.2004ZM65.9764 39.56C65.9764 38.2775 65.4708 37.1993 64.4434 36.4544L63.2695 38.0736C63.7354 38.4114 63.9764 38.8639 63.9764 39.56H65.9764ZM64.4531 36.4615C63.4981 35.7513 62.2743 35.452 60.8884 35.452V37.452C62.0039 37.452 62.7588 37.694 63.2597 38.0665L64.4531 36.4615ZM60.8884 35.452C58.9428 35.452 57.2875 36.0347 56.0373 37.2849L57.4515 38.6991C58.2547 37.8959 59.3621 37.452 60.8884 37.452V35.452ZM56.0373 37.2849C54.8242 38.498 54.025 40.2632 53.5546 42.4585L55.5102 42.8775C55.9358 40.8914 56.6113 39.5394 57.4515 38.6991L56.0373 37.2849ZM53.5553 42.4556C53.3556 43.374 53.2524 44.2577 53.2524 45.104H55.2524C55.2524 44.4197 55.3359 43.6793 55.5096 42.8804L53.5553 42.4556ZM53.2524 45.104C53.2524 46.6273 53.669 47.9477 54.6466 48.9002L56.0423 47.4678C55.5639 47.0016 55.2524 46.2687 55.2524 45.104H53.2524ZM54.6466 48.9002C55.6463 49.8743 57.1372 50.248 58.8724 50.248V48.248C57.3597 48.248 56.4986 47.9123 56.0423 47.4678L54.6466 48.9002ZM58.8724 50.248C60.083 50.248 61.1706 50.1096 62.1156 49.8089L61.5092 47.9031C60.8116 48.125 59.9392 48.248 58.8724 48.248V50.248ZM62.1287 49.8047C63.0005 49.5141 63.8127 49.1171 64.2695 48.4972L62.6594 47.3108C62.5935 47.4002 62.3043 47.6379 61.4962 47.9073L62.1287 49.8047ZM64.4486 48.0812L64.7006 46.6812L62.7323 46.3268L62.4803 47.7268L64.4486 48.0812ZM63.7164 45.504H59.8244V47.504H63.7164V45.504ZM60.8097 46.6751L61.5097 42.6431L59.5392 42.3009L58.8392 46.3329L60.8097 46.6751ZM60.5244 43.472H69.1484V41.472H60.5244V43.472ZM68.1638 42.2972L66.7918 50.0252L68.761 50.3748L70.133 42.6468L68.1638 42.2972ZM67.0856 49.477C66.3529 50.1771 65.2834 50.8679 63.8329 51.5304L64.6639 53.3496C66.2375 52.6308 67.52 51.8282 68.4673 50.923L67.0856 49.477ZM63.8381 51.5281C62.5258 52.1186 60.6594 52.448 58.1724 52.448V54.448C60.8001 54.448 62.9844 54.1054 64.6588 53.3519L63.8381 51.5281ZM80.4016 32.672V31.672H79.8289L79.5391 32.1659L80.4016 32.672ZM86.3656 32.672L87.339 32.4427L87.1574 31.672H86.3656V32.672ZM91.1536 53V54H92.4165L92.127 52.7707L91.1536 53ZM85.7496 53L84.7677 53.1895L84.9241 54H85.7496V53ZM85.1336 49.808L86.1155 49.6185L85.9591 48.808H85.1336V49.808ZM75.5576 49.808V48.808H74.9631L74.6791 49.3302L75.5576 49.808ZM73.8216 53V54H74.4161L74.7001 53.4778L73.8216 53ZM68.4736 53L67.6111 52.4939L66.7274 54H68.4736V53ZM84.2656 45.44V46.44H85.4791L85.2472 45.2489L84.2656 45.44ZM82.6136 36.956L83.5952 36.7649L83.0662 34.0485L81.7366 36.4755L82.6136 36.956ZM77.9656 45.44L77.0886 44.9595L76.2775 46.44H77.9656V45.44ZM80.4016 33.672H86.3656V31.672H80.4016V33.672ZM85.3922 32.9013L90.1802 53.2293L92.127 52.7707L87.339 32.4427L85.3922 32.9013ZM91.1536 52H85.7496V54H91.1536V52ZM86.7315 52.8105L86.1155 49.6185L84.1517 49.9975L84.7677 53.1895L86.7315 52.8105ZM85.1336 48.808H75.5576V50.808H85.1336V48.808ZM74.6791 49.3302L72.9431 52.5222L74.7001 53.4778L76.4361 50.2858L74.6791 49.3302ZM73.8216 52H68.4736V54H73.8216V52ZM69.3361 53.5061L81.2641 33.1781L79.5391 32.1659L67.6111 52.4939L69.3361 53.5061ZM85.2472 45.2489L83.5952 36.7649L81.632 37.1471L83.284 45.6311L85.2472 45.2489ZM81.7366 36.4755L77.0886 44.9595L78.8426 45.9205L83.4906 37.4365L81.7366 36.4755ZM77.9656 46.44H84.2656V44.44H77.9656V46.44Z" fill="white"/>
<path d="M117.48 32.952H120.196L116.668 53H113.952L117.48 32.952ZM132.847 32.952H135.563L132.035 53H129.319L132.847 32.952ZM148.214 32.952H150.93L147.402 53H144.686L148.214 32.952ZM166.686 48.52C169.244 47.2133 171.129 46.224 172.342 45.552L172.902 45.244C174.47 44.3853 175.674 43.6853 176.514 43.144C177.373 42.6027 178.092 42.0147 178.67 41.38C179.249 40.7267 179.613 39.9987 179.762 39.196C179.818 38.9347 179.846 38.692 179.846 38.468C179.846 37.068 178.922 36.368 177.074 36.368C175.768 36.368 174.722 36.704 173.938 37.376C173.173 38.0293 172.706 38.8133 172.538 39.728H167.694C168.086 37.3947 169.048 35.5653 170.578 34.24C172.109 32.896 174.396 32.224 177.438 32.224C180.07 32.224 181.974 32.728 183.15 33.736C184.326 34.7253 184.914 36.032 184.914 37.656C184.914 38.0853 184.868 38.58 184.774 39.14C184.532 40.5027 184.018 41.7253 183.234 42.808C182.45 43.872 181.498 44.8053 180.378 45.608C179.277 46.4107 177.933 47.2507 176.346 48.128L174.974 48.856L182.87 48.828L182.142 53H165.258L165.426 52.048L165.958 48.884L166.686 48.52ZM194.447 53.448C191.703 53.448 189.65 52.888 188.287 51.768C186.943 50.648 186.271 48.8093 186.271 46.252C186.271 45.2067 186.402 43.956 186.663 42.5C187.111 39.9613 187.792 37.9453 188.707 36.452C189.622 34.94 190.798 33.8573 192.235 33.204C193.672 32.5507 195.446 32.224 197.555 32.224C200.299 32.224 202.334 32.7933 203.659 33.932C205.003 35.052 205.675 36.9 205.675 39.476C205.675 40.6147 205.554 41.8467 205.311 43.172C204.863 45.7107 204.182 47.736 203.267 49.248C202.352 50.7413 201.176 51.8147 199.739 52.468C198.302 53.1213 196.538 53.448 194.447 53.448ZM191.591 42.612C191.404 43.676 191.311 44.6373 191.311 45.496C191.311 46.9333 191.6 47.932 192.179 48.492C192.776 49.052 193.663 49.332 194.839 49.332C195.866 49.332 196.734 49.1453 197.443 48.772C198.152 48.38 198.75 47.736 199.235 46.84C199.72 45.9253 200.103 44.6653 200.383 43.06C200.57 41.996 200.663 41.0533 200.663 40.232C200.663 38.776 200.364 37.768 199.767 37.208C199.17 36.6293 198.283 36.34 197.107 36.34C195.595 36.34 194.4 36.8067 193.523 37.74C192.646 38.6547 192.002 40.2787 191.591 42.612ZM207.155 48.52C209.712 47.2133 211.598 46.224 212.811 45.552L213.371 45.244C214.939 44.3853 216.143 43.6853 216.983 43.144C217.842 42.6027 218.56 42.0147 219.139 41.38C219.718 40.7267 220.082 39.9987 220.231 39.196C220.287 38.9347 220.315 38.692 220.315 38.468C220.315 37.068 219.391 36.368 217.543 36.368C216.236 36.368 215.191 36.704 214.407 37.376C213.642 38.0293 213.175 38.8133 213.007 39.728H208.163C208.555 37.3947 209.516 35.5653 211.047 34.24C212.578 32.896 214.864 32.224 217.907 32.224C220.539 32.224 222.443 32.728 223.619 33.736C224.795 34.7253 225.383 36.032 225.383 37.656C225.383 38.0853 225.336 38.58 225.243 39.14C225 40.5027 224.487 41.7253 223.703 42.808C222.919 43.872 221.967 44.8053 220.847 45.608C219.746 46.4107 218.402 47.2507 216.815 48.128L215.443 48.856L223.339 48.828L222.611 53H205.727L205.895 52.048L206.427 48.884L207.155 48.52ZM226.46 48.52C229.017 47.2133 230.902 46.224 232.116 45.552L232.676 45.244C234.244 44.3853 235.448 43.6853 236.288 43.144C237.146 42.6027 237.865 42.0147 238.444 41.38C239.022 40.7267 239.386 39.9987 239.536 39.196C239.592 38.9347 239.62 38.692 239.62 38.468C239.62 37.068 238.696 36.368 236.848 36.368C235.541 36.368 234.496 36.704 233.712 37.376C232.946 38.0293 232.48 38.8133 232.312 39.728H227.468C227.86 37.3947 228.821 35.5653 230.352 34.24C231.882 32.896 234.169 32.224 237.212 32.224C239.844 32.224 241.748 32.728 242.924 33.736C244.1 34.7253 244.688 36.032 244.688 37.656C244.688 38.0853 244.641 38.58 244.548 39.14C244.305 40.5027 243.792 41.7253 243.008 42.808C242.224 43.872 241.272 44.8053 240.152 45.608C239.05 46.4107 237.706 47.2507 236.12 48.128L234.748 48.856L242.644 48.828L241.916 53H225.032L225.2 52.048L225.732 48.884L226.46 48.52ZM261.864 53.42C259.792 53.42 258.15 53.168 256.936 52.664C255.742 52.1413 254.892 51.3947 254.388 50.424C253.884 49.4533 253.632 48.24 253.632 46.784C253.632 45.72 253.772 44.348 254.052 42.668L255.816 32.672H260.772L259.008 42.64C258.803 43.8347 258.7 44.8147 258.7 45.58C258.7 46.7933 258.971 47.6707 259.512 48.212C260.072 48.7533 260.987 49.024 262.256 49.024C263.432 49.024 264.384 48.8093 265.112 48.38C265.859 47.932 266.438 47.2507 266.848 46.336C267.278 45.4213 267.623 44.1987 267.884 42.668L269.648 32.672H274.632L272.812 43.032C272.383 45.4773 271.814 47.428 271.104 48.884C270.414 50.34 269.34 51.46 267.884 52.244C266.428 53.028 264.422 53.42 261.864 53.42ZM284.37 53.448C281.57 53.448 279.386 52.972 277.818 52.02C276.25 51.068 275.466 49.6493 275.466 47.764C275.466 47.3907 275.512 46.924 275.606 46.364L280.45 46.392C280.412 46.6533 280.394 46.8493 280.394 46.98C280.394 47.7827 280.776 48.3893 281.542 48.8C282.307 49.2107 283.558 49.416 285.294 49.416C286.283 49.416 287.142 49.3133 287.87 49.108C288.616 48.884 289.055 48.4547 289.186 47.82C289.204 47.764 289.214 47.68 289.214 47.568C289.214 46.9707 288.859 46.5227 288.15 46.224C287.44 45.9067 286.32 45.5707 284.79 45.216C283.147 44.824 281.803 44.4413 280.758 44.068C279.712 43.676 278.807 43.088 278.042 42.304C277.295 41.52 276.922 40.484 276.922 39.196C276.922 38.8413 276.968 38.4027 277.062 37.88C277.416 35.9573 278.406 34.5387 280.03 33.624C281.672 32.6907 284.006 32.224 287.03 32.224C292.854 32.224 295.766 33.988 295.766 37.516C295.766 37.908 295.719 38.384 295.626 38.944L290.81 38.916C290.847 38.6547 290.866 38.4493 290.866 38.3C290.866 37.6653 290.567 37.1707 289.97 36.816C289.372 36.4427 288.252 36.256 286.61 36.256C285.303 36.256 284.295 36.4147 283.586 36.732C282.876 37.0493 282.522 37.544 282.522 38.216C282.522 38.6267 282.708 38.972 283.082 39.252C283.455 39.5133 283.922 39.728 284.482 39.896C285.042 40.064 285.844 40.2693 286.89 40.512C288.495 40.8667 289.82 41.24 290.866 41.632C291.93 42.0053 292.835 42.584 293.582 43.368C294.347 44.1333 294.73 45.16 294.73 46.448C294.73 46.8773 294.692 47.288 294.618 47.68C294.263 49.7147 293.218 51.1893 291.482 52.104C289.764 53 287.394 53.448 284.37 53.448ZM313.831 53.448C307.839 53.448 304.843 50.8627 304.843 45.692C304.843 44.7587 304.946 43.6947 305.151 42.5C305.767 39.028 307.027 36.452 308.931 34.772C310.854 33.0733 313.542 32.224 316.995 32.224C322.969 32.224 325.955 34.8187 325.955 40.008C325.955 40.9413 325.853 42.0053 325.647 43.2C325.031 46.672 323.771 49.248 321.867 50.928C319.963 52.608 317.285 53.448 313.831 53.448ZM310.051 42.78C309.865 43.5827 309.771 44.3667 309.771 45.132C309.771 47.876 311.246 49.248 314.195 49.248C316.025 49.248 317.462 48.7253 318.507 47.68C319.571 46.616 320.327 45.0387 320.775 42.948C320.962 41.9773 321.055 41.184 321.055 40.568C321.055 39.224 320.701 38.2067 319.991 37.516C319.301 36.8067 318.199 36.452 316.687 36.452C314.895 36.452 313.458 36.9747 312.375 38.02C311.293 39.0653 310.518 40.652 310.051 42.78ZM331.162 32.672H338.778C341.26 32.672 343.239 32.84 344.714 33.176C346.207 33.4933 347.299 34.044 347.99 34.828C348.699 35.612 349.054 36.6947 349.054 38.076C349.054 38.7107 348.979 39.4573 348.83 40.316C348.494 42.22 347.896 43.6667 347.038 44.656C346.198 45.6267 344.966 46.2987 343.342 46.672C341.736 47.0267 339.478 47.204 336.566 47.204H333.542L332.506 53H327.578L331.162 32.672ZM337.994 42.808C339.412 42.808 340.486 42.752 341.214 42.64C341.942 42.528 342.53 42.2667 342.978 41.856C343.426 41.4453 343.724 40.8013 343.874 39.924C343.93 39.644 343.958 39.3827 343.958 39.14C343.958 38.58 343.799 38.1507 343.482 37.852C343.183 37.5533 342.707 37.348 342.054 37.236C341.419 37.124 340.551 37.068 339.45 37.068H335.334L334.326 42.808H337.994ZM353.31 32.672H369.354L368.598 37.068H357.482L356.866 40.596H366.302L365.546 44.964H356.082L355.438 48.604H366.778L365.994 53H349.726L353.31 32.672ZM376.61 38.72L374.146 53H369.386L373.054 32.672H378.71L385.542 46.756L387.95 32.672H392.682L389.126 53H383.666L376.61 38.72Z" fill="url(#paint2_linear_713_19973)"/>
<rect x="360" y="88" width="2.9689" height="334" rx="1.48445" transform="rotate(90 360 88)" fill="url(#paint3_linear_713_19973)"/>
<circle cx="2" cy="6" r="1" fill="white" fill-opacity="0.1"/>
<circle cx="9" cy="6" r="1" fill="white" fill-opacity="0.1"/>
<circle cx="16" cy="6" r="1" fill="white" fill-opacity="0.1"/>
<circle cx="23" cy="6" r="1" fill="white" fill-opacity="0.1"/>
<circle cx="30" cy="6" r="1" fill="white" fill-opacity="0.1"/>
<circle cx="37" cy="6" r="1" fill="white" fill-opacity="0.1"/>
<circle cx="44" cy="6" r="1" fill="white" fill-opacity="0.1"/>
<circle cx="51" cy="6" r="1" fill="white" fill-opacity="0.1"/>
<circle cx="58" cy="6" r="1" fill="white" fill-opacity="0.1"/>
<circle cx="65" cy="6" r="1" fill="white" fill-opacity="0.1"/>
<circle cx="72" cy="6" r="1" fill="white" fill-opacity="0.1"/>
<circle cx="79" cy="6" r="1" fill="white" fill-opacity="0.1"/>
<circle cx="2" cy="15" r="1" fill="white" fill-opacity="0.1"/>
<circle cx="9" cy="15" r="1" fill="white" fill-opacity="0.1"/>
<circle cx="16" cy="15" r="1" fill="white" fill-opacity="0.1"/>
<circle cx="23" cy="15" r="1" fill="white" fill-opacity="0.1"/>
<circle cx="30" cy="15" r="1" fill="white" fill-opacity="0.1"/>
<circle cx="37" cy="15" r="1" fill="white" fill-opacity="0.1"/>
<circle cx="44" cy="15" r="1" fill="white" fill-opacity="0.1"/>
<circle cx="51" cy="15" r="1" fill="white" fill-opacity="0.1"/>
<circle cx="58" cy="15" r="1" fill="white" fill-opacity="0.1"/>
<circle cx="65" cy="15" r="1" fill="white" fill-opacity="0.1"/>
<circle cx="72" cy="15" r="1" fill="white" fill-opacity="0.1"/>
<circle cx="79" cy="15" r="1" fill="white" fill-opacity="0.1"/>
<circle cx="2" cy="24" r="1" fill="white" fill-opacity="0.1"/>
<circle cx="9" cy="24" r="1" fill="white" fill-opacity="0.1"/>
<circle cx="16" cy="24" r="1" fill="white" fill-opacity="0.1"/>
<circle cx="23" cy="24" r="1" fill="white" fill-opacity="0.1"/>
<circle cx="30" cy="24" r="1" fill="white" fill-opacity="0.1"/>
<circle cx="37" cy="24" r="1" fill="white" fill-opacity="0.1"/>
<circle cx="44" cy="24" r="1" fill="white" fill-opacity="0.1"/>
<circle cx="51" cy="24" r="1" fill="white" fill-opacity="0.1"/>
<circle cx="58" cy="24" r="1" fill="white" fill-opacity="0.1"/>
<circle cx="65" cy="24" r="1" fill="white" fill-opacity="0.1"/>
<circle cx="72" cy="24" r="1" fill="white" fill-opacity="0.1"/>
<circle cx="79" cy="24" r="1" fill="white" fill-opacity="0.1"/>
<circle cx="2" cy="33" r="1" fill="white" fill-opacity="0.1"/>
<circle cx="9" cy="33" r="1" fill="white" fill-opacity="0.1"/>
<circle cx="16" cy="33" r="1" fill="white" fill-opacity="0.1"/>
<circle cx="23" cy="33" r="1" fill="white" fill-opacity="0.1"/>
<circle cx="30" cy="33" r="1" fill="white" fill-opacity="0.1"/>
<circle cx="37" cy="33" r="1" fill="white" fill-opacity="0.1"/>
<circle cx="44" cy="33" r="1" fill="white" fill-opacity="0.1"/>
<circle cx="51" cy="33" r="1" fill="white" fill-opacity="0.1"/>
<circle cx="58" cy="33" r="1" fill="white" fill-opacity="0.1"/>
<circle cx="65" cy="33" r="1" fill="white" fill-opacity="0.1"/>
<circle cx="72" cy="33" r="1" fill="white" fill-opacity="0.1"/>
<circle cx="79" cy="33" r="1" fill="white" fill-opacity="0.1"/>
<circle cx="2" cy="42" r="1" fill="white" fill-opacity="0.1"/>
<circle cx="9" cy="42" r="1" fill="white" fill-opacity="0.1"/>
<circle cx="16" cy="42" r="1" fill="white" fill-opacity="0.1"/>
<circle cx="23" cy="42" r="1" fill="white" fill-opacity="0.1"/>
<circle cx="30" cy="42" r="1" fill="white" fill-opacity="0.1"/>
<circle cx="37" cy="42" r="1" fill="white" fill-opacity="0.1"/>
<circle cx="44" cy="42" r="1" fill="white" fill-opacity="0.1"/>
<circle cx="51" cy="42" r="1" fill="white" fill-opacity="0.1"/>
<circle cx="58" cy="42" r="1" fill="white" fill-opacity="0.1"/>
<circle cx="65" cy="42" r="1" fill="white" fill-opacity="0.1"/>
<circle cx="72" cy="42" r="1" fill="white" fill-opacity="0.1"/>
<circle cx="79" cy="42" r="1" fill="white" fill-opacity="0.1"/>
<circle cx="2" cy="51" r="1" fill="white" fill-opacity="0.1"/>
<circle cx="9" cy="51" r="1" fill="white" fill-opacity="0.1"/>
<circle cx="16" cy="51" r="1" fill="white" fill-opacity="0.1"/>
<circle cx="23" cy="51" r="1" fill="white" fill-opacity="0.1"/>
<circle cx="30" cy="51" r="1" fill="white" fill-opacity="0.1"/>
<circle cx="37" cy="51" r="1" fill="white" fill-opacity="0.1"/>
<circle cx="44" cy="51" r="1" fill="white" fill-opacity="0.1"/>
<circle cx="51" cy="51" r="1" fill="white" fill-opacity="0.1"/>
<circle cx="58" cy="51" r="1" fill="white" fill-opacity="0.1"/>
<circle cx="65" cy="51" r="1" fill="white" fill-opacity="0.1"/>
<circle cx="72" cy="51" r="1" fill="white" fill-opacity="0.1"/>
<circle cx="79" cy="51" r="1" fill="white" fill-opacity="0.1"/>
<path d="M882.358 127L951 -3L605.238 -2.99999C538.547 -2.99999 491.269 62.8334 511.877 127H882.358Z" fill="url(#paint4_linear_713_19973)"/>
<g clip-path="url(#clip1_713_19973)">
<path d="M582.5 60.3333C580.567 60.3333 579 61.9003 579 63.8333C579 65.7663 580.567 67.3333 582.5 67.3333C584.433 67.3333 586 65.7663 586 63.8333C586 61.9003 584.433 60.3333 582.5 60.3333Z" fill="white"/>
<path d="M588.333 54.5C588.333 52.567 589.9 51 591.833 51C593.766 51 595.333 52.567 595.333 54.5C595.333 56.433 593.766 58 591.833 58C589.9 58 588.333 56.433 588.333 54.5Z" fill="white"/>
<path fill-rule="evenodd" clip-rule="evenodd" d="M565 56.8333C565 45.8797 573.88 37 584.833 37C595.787 37 604.667 45.8797 604.667 56.8333C604.667 67.787 595.787 76.6667 584.833 76.6667C573.88 76.6667 565 67.787 565 56.8333ZM569.667 56.8333C569.667 48.457 576.457 41.6667 584.833 41.6667C593.21 41.6667 600 48.457 600 56.8333C600 59.905 599.087 62.7634 597.517 65.1518C597.082 63.7137 595.747 62.6667 594.167 62.6667C592.234 62.6667 590.667 64.2337 590.667 66.1667C590.667 67.7467 591.714 69.0823 593.152 69.5173C590.763 71.0869 587.905 72 584.833 72C576.457 72 569.667 65.2097 569.667 56.8333Z" fill="white"/>
<path d="M581.333 93V85.7923C578.02 85.396 574.877 84.444 572 83.0323V77.7074C575.714 79.9955 580.084 81.3202 584.763 81.3333H584.903C589.582 81.3202 593.953 79.9955 597.667 77.7074V83.0323C594.79 84.444 591.647 85.396 588.333 85.7923V93H581.333Z" fill="white"/>
</g>
<path d="M939.217 134L1021 -21L609.045 -21C529.587 -21 473.257 57.4937 497.811 134H939.217Z" stroke="url(#paint5_linear_713_19973)"/>
</g>
<defs>
<linearGradient id="paint0_linear_713_19973" x1="47.4757" y1="-23.8544" x2="139.773" y2="453.746" gradientUnits="userSpaceOnUse">
<stop stop-color="#4D4D4D"/>
<stop offset="1"/>
</linearGradient>
<linearGradient id="paint1_linear_713_19973" x1="-20" y1="-58" x2="813" y2="240" gradientUnits="userSpaceOnUse">
<stop stop-color="#2BB4BD"/>
<stop offset="1" stop-opacity="0"/>
</linearGradient>
<linearGradient id="paint2_linear_713_19973" x1="253.5" y1="-6.6923" x2="302.131" y2="113.722" gradientUnits="userSpaceOnUse">
<stop stop-color="white"/>
<stop offset="1" stop-color="#2CBBC3"/>
</linearGradient>
<linearGradient id="paint3_linear_713_19973" x1="360.216" y1="24.767" x2="371.889" y2="24.8708" gradientUnits="userSpaceOnUse">
<stop stop-color="#39F0FC"/>
<stop offset="1"/>
</linearGradient>
<linearGradient id="paint4_linear_713_19973" x1="918.67" y1="-27.6117" x2="780.822" y2="443.192" gradientUnits="userSpaceOnUse">
<stop stop-color="#39F0FC"/>
<stop offset="1"/>
</linearGradient>
<linearGradient id="paint5_linear_713_19973" x1="756.5" y1="-21" x2="684.22" y2="225.686" gradientUnits="userSpaceOnUse">
<stop stop-color="#D9D9D9"/>
<stop offset="1" stop-color="#D9D9D9" stop-opacity="0"/>
</linearGradient>
<clipPath id="clip0_713_19973">
<rect width="652" height="126" rx="20" fill="white"/>
</clipPath>
<clipPath id="clip1_713_19973">
<rect width="56" height="56" fill="white" transform="translate(558 37)"/>
</clipPath>
</defs>
</svg>
